<svg width="37" height="34" viewBox="0 0 37 34" fill="none" xmlns="http://www.w3.org/2000/svg">
<path fill-rule="evenodd" clip-rule="evenodd" d="M12.8676 5.4773C12.9036 5.24927 12.9224 5.01546 12.9224 4.77728C12.9224 4.53912 12.9036 4.30532 12.8676 4.0773H36.2556C36.6422 4.0773 36.9556 4.3907 36.9556 4.7773C36.9556 5.1639 36.6422 5.4773 36.2556 5.4773H12.8676ZM4.08831 5.4773H0.7C0.313401 5.4773 0 5.1639 0 4.7773C0 4.3907 0.313401 4.0773 0.7 4.0773H4.0883C4.05223 4.30532 4.0335 4.53912 4.0335 4.77728C4.0335 5.01546 4.05223 5.24927 4.08831 5.4773ZM31.7575 17.6995C31.7936 17.4715 31.8124 17.2377 31.8124 16.9995C31.8124 16.7613 31.7936 16.5275 31.7575 16.2995H36.2556C36.6422 16.2995 36.9556 16.6129 36.9556 16.9995C36.9556 17.3861 36.6422 17.6995 36.2556 17.6995H31.7575ZM22.9783 17.6995H0.7C0.313401 17.6995 0 17.3861 0 16.9995C0 16.6129 0.313401 16.2995 0.7 16.2995H22.9783C22.9422 16.5275 22.9235 16.7613 22.9235 16.9995C22.9235 17.2377 22.9422 17.4715 22.9783 17.6995ZM19.5342 29.9217H36.2556C36.6422 29.9217 36.9556 29.6083 36.9556 29.2217C36.9556 28.8351 36.6422 28.5217 36.2556 28.5217H19.5342C19.5703 28.7498 19.5891 28.9836 19.5891 29.2217C19.5891 29.4599 19.5703 29.6937 19.5342 29.9217ZM10.755 29.9217C10.7189 29.6937 10.7002 29.4599 10.7002 29.2217C10.7002 28.9836 10.7189 28.7498 10.755 28.5217H0.7C0.313401 28.5217 0 28.8351 0 29.2217C0 29.6083 0.313401 29.9217 0.7 29.9217H10.755Z" fill="#D39F3A"/>
<path fill-rule="evenodd" clip-rule="evenodd" d="M8.47765 7.66622C10.0731 7.66622 11.3665 6.37282 11.3665 4.77733C11.3665 3.18184 10.0731 1.88844 8.47765 1.88844C6.88216 1.88844 5.58876 3.18184 5.58876 4.77733C5.58876 6.37282 6.88216 7.66622 8.47765 7.66622ZM27.3676 19.8884C28.9631 19.8884 30.2565 18.595 30.2565 16.9996C30.2565 15.4041 28.9631 14.1107 27.3676 14.1107C25.7721 14.1107 24.4787 15.4041 24.4787 16.9996C24.4787 18.595 25.7721 19.8884 27.3676 19.8884ZM15.1443 32.1107C16.7398 32.1107 18.0332 30.8173 18.0332 29.2218C18.0332 27.6263 16.7398 26.3329 15.1443 26.3329C13.5488 26.3329 12.2554 27.6263 12.2554 29.2218C12.2554 30.8173 13.5488 32.1107 15.1443 32.1107ZM8.47765 9.22177C10.9322 9.22177 12.9221 7.23193 12.9221 4.77733C12.9221 2.32273 10.9322 0.332886 8.47765 0.332886C6.02305 0.332886 4.0332 2.32273 4.0332 4.77733C4.0332 7.23193 6.02305 9.22177 8.47765 9.22177ZM27.3676 21.444C29.8222 21.444 31.8121 19.4542 31.8121 16.9996C31.8121 14.545 29.8222 12.5551 27.3676 12.5551C24.913 12.5551 22.9232 14.545 22.9232 16.9996C22.9232 19.4542 24.913 21.444 27.3676 21.444ZM19.5888 29.2218C19.5888 31.6764 17.5989 33.6662 15.1443 33.6662C12.6897 33.6662 10.6999 31.6764 10.6999 29.2218C10.6999 26.7672 12.6897 24.7773 15.1443 24.7773C17.5989 24.7773 19.5888 26.7672 19.5888 29.2218Z" fill="white"/>
</svg>
