<?xml version="1.0" encoding="UTF-8"?>
<svg id="Layer_2" xmlns="http://www.w3.org/2000/svg" viewBox="0 0 262.53 66.13">
  <defs>
    <style>
      .cls-1 {
        fill: #fff;
      }

      .cls-2 {
        fill: #0384c7;
      }
    </style>
  </defs>
  <g id="fiNAL_lOGO_copy">
    <g>
      <path class="cls-2" d="M44.51,0l5.89,13.32h-16.93l-9.6,22.35h14.63l4.81,11.21-24.13-.04-5.03,12.72c5.56,4.14,12.45,6.58,19.92,6.58s13.99-2.32,19.47-6.27l-18.4-42.72h.71s0-.02,0-.02h1.2s0,0,0,0h15.06l12.44,29.26c8.73-17.36-.74-41.24-20.03-46.4Z"/>
      <path class="cls-2" d="M22.49.08C9.38,4.77,0,17.3,0,32.02c0,4.69.95,9.16,2.67,13.22L22.49.08Z"/>
      <path class="cls-1" d="M93.74,20.98h5.22l11.58,26.5h-3.9c-.41,0-.8-.05-1.17-.16-.38-.1-.72-.26-1.05-.46-.32-.2-.61-.45-.87-.74-.26-.29-.47-.62-.63-.99l-1.29-2.94h-10.54l-1.26,2.94c-.15.33-.35.64-.62.93s-.56.53-.9.75-.69.38-1.07.5c-.38.12-.76.18-1.15.18h-3.92l11.58-26.5ZM93.5,36.7h5.66l-2.31-5.55c-.11-.26-.2-.5-.26-.72-.06-.22-.11-.42-.15-.59-.05-.2-.08-.38-.09-.55-.02.17-.06.36-.11.57-.04.17-.09.37-.16.59-.07.22-.15.46-.25.7l-2.33,5.55Z"/>
      <path class="cls-1" d="M114.95,47.48v-26.5h6.05v20.84h10.47v5.66h-16.52Z"/>
      <path class="cls-1" d="M153.05,31.75v5.66h-9.71v10.08h-6.05v-26.5h17.64v5.66h-11.6v5.1h9.71Z"/>
      <path class="cls-1" d="M161.39,47.48v-26.5h6.05v20.84h10.47v5.66h-16.52Z"/>
      <path class="cls-1" d="M201.37,47.48h-17.64v-26.5h17.64v5.66h-11.6v4.64h9.43v5.66h-9.43v4.88h11.6v5.66Z"/>
      <path class="cls-1" d="M223.64,33.19c-.14.2-.23.4-.28.59-.02.1-.04.19-.04.28.01.09.03.18.06.28.02.09.06.18.09.28.04.1.09.2.17.3.72.99,1.47,2.02,2.28,3.11s1.61,2.17,2.41,3.26c.81,1.09,1.6,2.16,2.39,3.22.78,1.05,1.52,2.05,2.21,2.99h-4.94c-.93,0-1.73-.18-2.4-.55s-1.25-.87-1.72-1.5l-4.31-5.81c-.1-.14-.18-.28-.24-.43-.06-.15-.12-.28-.17-.39-.05-.14-.09-.26-.13-.37-.04.12-.08.25-.13.39-.05.11-.1.24-.17.38-.06.14-.14.28-.22.42l-4.2,5.77c-.49.67-1.08,1.18-1.77,1.54-.68.36-1.48.55-2.39.55h-4.99l9.23-12.48c.16-.21.26-.39.3-.53.04-.14.06-.25.06-.32v-.09c0-.17-.04-.34-.11-.5-.07-.16-.16-.31-.26-.44l-8.97-12.13h4.99c.89,0,1.69.18,2.39.53.71.35,1.28.86,1.71,1.53l4.03,5.51c.09.14.16.27.22.4.06.13.12.25.17.36.05.14.1.26.15.37.02-.1.06-.22.11-.35.04-.1.08-.22.14-.36s.13-.28.23-.42l4.01-5.47c.91-1.39,2.3-2.09,4.16-2.09h4.96l-9.03,12.21Z"/>
      <path class="cls-1" d="M253.25,33.19c-.14.2-.23.4-.28.59-.02.1-.04.19-.04.28.01.09.03.18.06.28.02.09.06.18.09.28.04.1.09.2.17.3.72.99,1.47,2.02,2.28,3.11s1.61,2.17,2.41,3.26c.81,1.09,1.6,2.16,2.39,3.22.78,1.05,1.52,2.05,2.21,2.99h-4.94c-.93,0-1.73-.18-2.4-.55s-1.25-.87-1.72-1.5l-4.31-5.81c-.1-.14-.18-.28-.24-.43-.06-.15-.12-.28-.17-.39-.05-.14-.09-.26-.13-.37-.04.12-.08.25-.13.39-.05.11-.1.24-.17.38-.06.14-.14.28-.22.42l-4.2,5.77c-.49.67-1.08,1.18-1.77,1.54-.68.36-1.48.55-2.39.55h-4.99l9.23-12.48c.16-.21.26-.39.3-.53.04-.14.06-.25.06-.32v-.09c0-.17-.04-.34-.11-.5-.07-.16-.16-.31-.26-.44l-8.97-12.13h4.99c.89,0,1.69.18,2.39.53.71.35,1.28.86,1.71,1.53l4.03,5.51c.09.14.16.27.22.4.06.13.12.25.17.36.05.14.1.26.15.37.02-.1.06-.22.11-.35.04-.1.08-.22.14-.36s.13-.28.23-.42l4.01-5.47c.91-1.39,2.3-2.09,4.16-2.09h4.96l-9.03,12.21Z"/>
    </g>
  </g>
</svg>