<svg width="27" height="27" viewBox="0 0 27 27" fill="none" xmlns="http://www.w3.org/2000/svg">
<path d="M19.5762 9.8595C19.5762 14.2002 16.0574 17.719 11.7167 17.719C7.376 17.719 3.85718 14.2002 3.85718 9.8595C3.85718 5.51882 7.376 2 11.7167 2C16.0574 2 19.5762 5.51882 19.5762 9.8595Z" stroke="#C4963D" stroke-width="1.2" stroke-linejoin="round"/>
<path d="M8.99986 5.71429C8.04354 6.3077 6.51342 8.28572 7.27849 10.8572" stroke="#8E93A6" stroke-width="1.2" stroke-linecap="round"/>
<path d="M23.5672 20.8615C23.8015 21.0958 23.8015 21.4757 23.5672 21.71C23.3329 21.9443 22.953 21.9443 22.7187 21.71L23.5672 20.8615ZM17.582 14.8762L23.5672 20.8615L22.7187 21.71L16.7335 15.7248L17.582 14.8762Z" fill="#C4963D"/>
</svg>
